<?xml version="1.0" encoding="UTF-8"?>
<svg id="_レイヤー_2" data-name="レイヤー 2" xmlns="http://www.w3.org/2000/svg" viewBox="0 0 310.53 253.86">
  <defs>
    <style>
      .cls-1 {
        fill: #9b458e;
      }
    </style>
  </defs>
  <g id="_レイヤー_1-2" data-name="レイヤー 1">
    <path class="cls-1" d="m273.93,0l36.6,220.25-38.32,9.05-45.09-70.79-13.3-22.95-1.49,28.55-7.14,81.02-36.99,8.73L102.08,40.58l27.87-6.58,43.28,145.47,12.05,39.89,2.34-36.8,7.21-86.64,20.4-4.82,50.56,79.13,16.86,26.14-6.39-30.01L247.56,6.23l26.38-6.23Z"/>
    <path class="cls-1" d="m199.76,240.17h-35.04l-16.44-51.48H50.03l-16.62,51.48H0L78.39,4.1h44.07l77.3,236.07Zm-60.69-80.19l-39.92-126.25-39.92,126.25h79.83Z"/>
  </g>
</svg>